<svg xmlns="http://www.w3.org/2000/svg" version="1.1" xmlns:xlink="http://www.w3.org/1999/xlink" xmlns:svgjs="http://svgjs.dev/svgjs" width="1000" height="623" viewBox="0 0 1000 623"><g transform="matrix(1,0,0,1,-0.6060515978441572,0.2522267206477409)"><svg viewBox="0 0 396 247" data-background-color="#ffffff" preserveAspectRatio="xMidYMid meet" height="623" width="1000" xmlns="http://www.w3.org/2000/svg" xmlns:xlink="http://www.w3.org/1999/xlink"><g id="tight-bounds" transform="matrix(1,0,0,1,0.23999648052199518,-0.09999999999999432)"><svg viewBox="0 0 395.52 247.2" height="247.2" width="395.52"><g><svg viewBox="0 0 395.52 247.2" height="247.2" width="395.52"><g transform="matrix(1,0,0,1,0,64.6009547946864)"><svg viewBox="0 0 395.52 117.99809041062719" height="117.99809041062719" width="395.52"><g><svg viewBox="0 0 395.52 117.99809041062719" height="117.99809041062719" width="395.52"><g><svg viewBox="0 0 395.52 117.99809041062719" height="117.99809041062719" width="395.52"><g><svg viewBox="0 0 395.52 117.99809041062719" height="117.99809041062719" width="395.52"><g id="textblocktransform"><svg viewBox="0 0 395.52 117.99809041062719" height="117.99809041062719" width="395.52" id="textblock"><g><svg viewBox="0 0 395.52 68.45190672153633" height="68.45190672153633" width="395.52"><g transform="matrix(1,0,0,1,0,0)"><svg width="395.52" viewBox="0.15000000596046448 -37.54999923706055 218.73001098632812 38.54999923706055" height="68.45190672153633" data-palette-color="#0080ff"><path d="M17.25-17.45L14.2-17.45 14.2-4.7Q16.95-3.65 18.75-2.45L18.75-2.45 18.7 0 0.85 0 0.8-1.75Q2.25-2.65 4.1-3.4L4.1-3.4 4.1-17.5 0.2-17.5 0.15-20.3 3-22.2 4.1-22.9 4.1-26.15Q4.1-30.95 7.25-34.25 10.4-37.55 14.95-37.55L14.95-37.55Q18.85-37.55 23-35.1L23-35.1 17.9-26.35Q14.75-29.4 10.4-31.7L10.4-31.7 14.1-23.7 19.8-23.7 19.85-20.9 17.25-17.45ZM34.35-34.15L34.35-4.4Q36.5-3.5 37.95-2.45L37.95-2.45 37.9 0 20.55 0 20.5-1.75Q22.1-2.75 24.3-3.6L24.3-3.6 24.3-31.45 20.55-32.4 20.45-34.9Q25.2-36.55 31.4-36.85L31.4-36.85 34.35-34.15ZM63.09-13.9L60.15-10.95 47.7-11Q48.2-8.3 50.05-6.85 51.9-5.4 54.64-5.4 57.4-5.4 61-7.35L61-7.35 62.4-4.25 54.5 0.55Q53 0.85 51.5 0.85L51.5 0.85Q45.8 0.85 42.07-2.68 38.34-6.2 38.34-11.8L38.34-11.8Q38.34-17.5 42.2-21.35 46.05-25.2 51.55-25.2L51.55-25.2Q56.64-25.2 59.87-22.13 63.09-19.05 63.09-13.9L63.09-13.9ZM50.55-20.65L50.55-20.65Q48.55-19.3 47.75-15.2L47.75-15.2 54.14-15.65Q53.9-17.6 52.92-19.03 51.95-20.45 50.55-20.65ZM95.59-3.35L99.19-2.75 99.14 0 81.64 0 81.34-1.6 83.94-3.35 78.34-11.6 72.99-3.4 76.79-2.75 76.74 0 61.74 0 61.44-1.6Q63.49-3.15 65.89-4.3L65.89-4.3 74.69-16.9 65.74-30 62.54-30.55 62.59-33.3 79.44-33.3 79.74-31.7 77.29-30.05 82.44-22.55 87.04-29.9 83.24-30.55 83.29-33.3 97.39-33.3 97.69-31.7Q95.99-30.35 93.34-29.05L93.34-29.05 85.84-17.6 95.59-3.35ZM135.84-24.1L135.89-21.45Q134.89-20.6 133.84-20.05L133.84-20.05 126.59-0.2Q124.49 0.45 121.14 0.45L121.14 0.45Q119.29 0.45 117.94 0.2L117.94 0.2 115.59-6.35 112.89-0.2Q110.79 0.45 107.19 0.45L107.19 0.45Q105.19 0.45 103.84 0.2L103.84 0.2 96.74-19.4 94.04-21.3 94.04-24.1 105.69-24.1 110.69-8.05 111.29-8.05 113.14-13.15 109.29-23.8 119.44-24 123.84-8.05 124.39-8.05 124.34-24.1 135.84-24.1ZM135.14-12.25L135.14-12.25Q135.14-17.95 138.81-21.58 142.49-25.2 148.09-25.2L148.09-25.2Q153.74-25.2 157.39-21.53 161.04-17.85 161.04-12.05 161.04-6.25 157.46-2.63 153.89 1 148.34 1L148.34 1Q142.69 1 138.91-2.73 135.14-6.45 135.14-12.25ZM149.54-4.1L149.54-4.1Q150.94-5.3 150.94-11.45L150.94-11.45Q150.94-19.8 147.79-19.8L147.79-19.8Q146.94-19.8 146.44-19.45L146.44-19.45Q145.24-17.6 145.24-11.95L145.24-11.95Q145.24-3.9 148.49-3.9L148.49-3.9Q148.99-3.9 149.54-4.1ZM188.13-20.8L181.88-13.15Q178.19-16.35 175.88-16.8L175.88-16.8 175.88-5Q179.38-3.75 181.44-2.45L181.44-2.45 181.38 0 162.13 0 162.09-1.75Q163.78-2.8 165.84-3.55L165.84-3.55 165.84-19.8 162.09-20.75 161.99-23.2Q166.78-24.9 172.94-25.15L172.94-25.15 175.88-20.75 179.38-24.85Q180.34-25.15 181.49-25.15L181.49-25.15Q183.74-25.15 185.63-23.98 187.53-22.8 188.13-20.8L188.13-20.8ZM210.23-12.6L216.58-3.8Q217.83-2.8 218.88-2.25L218.88-2.25 218.68 0.15 207.98 0.15Q207.33-0.45 205.98-2.45L205.98-2.45 201.73-9.2 201.73 0 187.93 0 187.88-1.75Q189.48-2.75 191.68-3.6L191.68-3.6 191.68-31.45 187.88-32.4 187.78-34.9Q192.53-36.55 198.73-36.85L198.73-36.85 198.78-36.85 201.73-34.15 201.73-13.55 206.53-20.1 203.83-20.75 203.73-23.2Q208.48-24.9 214.78-25.15L214.78-25.15 217.33-21.5 210.23-12.6Z" opacity="1" transform="matrix(1,0,0,1,0,0)" fill="#0080ff" class="undefined-text-0" data-fill-palette-color="primary" id="text-0"></path></svg></g></svg></g><g transform="matrix(1,0,0,1,0,84.61175905272975)"><svg viewBox="0 0 395.52 33.38633135789745" height="33.38633135789745" width="395.52"><g transform="matrix(1,0,0,1,0,0)"><svg width="395.52" viewBox="1.440000057220459 -38.9900016784668 473.7099914550781 39.9900016784668" height="33.38633135789745" data-palette-color="#0080ff"><path d="M11.65-35.55L11.65-35.55Q10.35-34.69 9.79-31.93 9.23-29.17 9.11-24.44L9.11-24.44 17.21-24.44 17.21-23.61Q16.77-23.41 16.16-23.23 15.55-23.05 14.87-22.91 14.18-22.78 13.49-22.69 12.79-22.61 12.21-22.61L12.21-22.61 9.11-22.61 9.11-4.39Q9.11-3.42 9.31-2.71 9.52-2 10.01-1.51 10.5-1.03 11.28-0.71 12.06-0.39 13.21-0.2L13.21-0.2 12.99 0.39Q11.6 0.2 10.47 0.1 9.35 0 8.5 0L8.5 0Q7.1 0 5.25 0.39L5.25 0.39 5.1 0.15Q5.59-0.56 5.59-2.44L5.59-2.44 5.59-22.46 1.44-22.19 1.44-23.56Q3.93-24.34 5.59-24.34L5.59-24.34 5.59-25.15Q5.59-27.27 5.79-29.06 5.98-30.86 6.54-32.34 7.1-33.81 8.09-34.95 9.08-36.08 10.69-36.89L10.69-36.89Q11.96-37.52 13.32-37.79 14.67-38.06 16.31-38.06L16.31-38.06Q16.94-38.06 17.61-38.02 18.29-37.99 19.04-37.94L19.04-37.94Q19.07-37.67 19.07-37.41 19.07-37.16 19.07-36.66 19.07-36.16 19.01-35.4 18.95-34.64 18.85-33.94 18.75-33.23 18.62-32.59 18.48-31.96 18.31-31.49L18.31-31.49 17.5-31.64Q17.5-32.1 17.42-32.8 17.33-33.5 17.21-34.18 17.09-34.86 16.94-35.41 16.8-35.96 16.65-36.16L16.65-36.16Q15.58-36.43 14.7-36.43L14.7-36.43Q12.99-36.43 11.65-35.55ZM43.94-22.19L43.94-6.81Q43.94-5.18 44.1-4.09 44.26-3 44.66-2.34 45.07-1.68 45.77-1.4 46.48-1.12 47.26-1.12 48.04-1.12 48.24-1.15L48.24-1.15 48.36-0.71Q44.33 0.49 40.94 0.49L40.94 0.49Q40.45-0.83 40.45-2.29L40.45-2.29 40.45-3.44Q39.16-2.29 38.05-1.46 36.94-0.63 35.86-0.09 34.79 0.46 33.66 0.73 32.54 1 31.25 1L31.25 1Q29.78 1 28.33 0.66 26.88 0.32 25.71-0.56 24.53-1.44 23.81-2.95 23.09-4.47 23.09-6.81L23.09-6.81 23.09-21.9Q23.09-22.88 22.28-23.39 21.46-23.9 19.85-24.34L19.85-24.34 20.04-24.95Q21.46-24.66 23.7-24.66L23.7-24.66Q25.1-24.66 26.95-25.05L26.95-25.05 27.1-24.8Q26.61-24.05 26.61-22.19L26.61-22.19 26.61-7.69Q26.61-5.66 27.07-4.36 27.54-3.05 28.32-2.29 29.1-1.54 30.15-1.26 31.2-0.98 32.37-0.98L32.37-0.98Q33.47-0.98 34.41-1.21 35.35-1.44 36.3-1.94 37.25-2.44 38.25-3.23 39.26-4.03 40.45-5.15L40.45-5.15 40.45-21.29Q40.45-22.05 40.32-22.52 40.18-23 39.8-23.33 39.43-23.66 38.72-23.9 38.01-24.15 36.86-24.44L36.86-24.44 37.06-25.05Q38.45-24.85 39.45-24.76 40.45-24.66 41.06-24.66L41.06-24.66Q42.45-24.66 44.31-25.05L44.31-25.05 44.46-24.8Q43.94-24.07 43.94-22.19L43.94-22.19ZM60-22.61L60-6.74Q60-3.42 60.74-2.16 61.47-0.9 63.11-0.9L63.11-0.9Q64.89-0.9 67.45-2.25L67.45-2.25 68.21-1.2Q64.18 1 61.62 1L61.62 1Q60.25 1 59.39 0.76 58.54 0.51 57.83-0.2 57.12-0.9 56.82-2.28 56.51-3.66 56.51-5.86L56.51-5.86 56.51-22.41 52.85-22.19 52.85-23.75Q54.78-24.17 56.51-24.29L56.51-24.29 56.51-27.76Q58.59-28.93 59.91-31.1L59.91-31.1 60.66-30.81Q60.25-29.83 60.13-28.6 60-27.37 60-24.44L60-24.44 68.4-24.44 68.4-23.58Q67.38-23.17 66.33-22.89 65.28-22.61 64.16-22.61L64.16-22.61 60-22.61ZM94.99-22.19L94.99-6.81Q94.99-5.18 95.15-4.09 95.31-3 95.71-2.34 96.11-1.68 96.82-1.4 97.53-1.12 98.31-1.12 99.09-1.12 99.28-1.15L99.28-1.15 99.41-0.71Q95.38 0.49 91.98 0.49L91.98 0.49Q91.5-0.83 91.5-2.29L91.5-2.29 91.5-3.44Q90.2-2.29 89.09-1.46 87.98-0.63 86.91-0.09 85.83 0.46 84.71 0.73 83.59 1 82.29 1L82.29 1Q80.83 1 79.37 0.66 77.92 0.32 76.75-0.56 75.58-1.44 74.86-2.95 74.14-4.47 74.14-6.81L74.14-6.81 74.14-21.9Q74.14-22.88 73.32-23.39 72.5-23.9 70.89-24.34L70.89-24.34 71.09-24.95Q72.5-24.66 74.75-24.66L74.75-24.66Q76.14-24.66 78-25.05L78-25.05 78.14-24.8Q77.65-24.05 77.65-22.19L77.65-22.19 77.65-7.69Q77.65-5.66 78.12-4.36 78.58-3.05 79.36-2.29 80.14-1.54 81.19-1.26 82.24-0.98 83.42-0.98L83.42-0.98Q84.51-0.98 85.45-1.21 86.39-1.44 87.35-1.94 88.3-2.44 89.3-3.23 90.3-4.03 91.5-5.15L91.5-5.15 91.5-21.29Q91.5-22.05 91.36-22.52 91.23-23 90.85-23.33 90.47-23.66 89.76-23.9 89.06-24.15 87.91-24.44L87.91-24.44 88.1-25.05Q89.49-24.85 90.5-24.76 91.5-24.66 92.11-24.66L92.11-24.66Q93.5-24.66 95.35-25.05L95.35-25.05 95.5-24.8Q94.99-24.07 94.99-22.19L94.99-22.19ZM107.29-2.44L107.29-18.09Q107.29-19.73 107.13-20.83 106.97-21.92 106.57-22.58 106.17-23.24 105.46-23.51 104.75-23.78 102.99-23.75L102.99-23.75 102.9-24.19Q106.87-25.39 110.29-25.39L110.29-25.39Q110.81-24.1 110.81-22.61L110.81-22.61 110.81-19.6 110.9-19.51Q111.93-20.92 112.87-22.02 113.81-23.12 114.78-23.85 115.76-24.58 116.84-24.96 117.91-25.34 119.23-25.34L119.23-25.34Q120.06-25.34 121.06-25.2L121.06-25.2 119.64-19.24 118.74-19.51Q118.74-19.87 118.69-20.51 118.64-21.14 118.56-21.77 118.47-22.39 118.34-22.84 118.2-23.29 118.03-23.29L118.03-23.29Q117.32-23.29 116.6-22.99 115.88-22.68 115.03-22 114.17-21.31 113.15-20.21 112.12-19.12 110.81-17.55L110.81-17.55 110.81-3.34Q110.81-2.56 110.93-2.09 111.05-1.61 111.44-1.29 111.83-0.98 112.54-0.73 113.25-0.49 114.39-0.2L114.39-0.2 114.2 0.39Q112.78 0.2 111.79 0.1 110.81 0 110.2 0L110.2 0Q108.8 0 106.95 0.39L106.95 0.39 106.8 0.15Q107.29-0.56 107.29-2.44L107.29-2.44ZM124.55-11.89L124.55-11.89Q124.55-14.48 125.4-16.91 126.26-19.34 127.84-21.23 129.43-23.12 131.69-24.26 133.95-25.39 136.76-25.39L136.76-25.39Q138.51-25.39 140.08-24.79 141.64-24.19 142.8-22.94 143.96-21.68 144.63-19.71 145.3-17.75 145.3-15.04L145.3-15.04 144.35-14.16 128.41-14.16Q128.36-13.75 128.36-13.35 128.36-12.96 128.36-12.57L128.36-12.57Q128.36-9.91 128.98-7.74 129.6-5.57 130.66-4.02 131.73-2.47 133.17-1.61 134.61-0.76 136.22-0.76L136.22-0.76Q137.24-0.76 138.31-0.92 139.37-1.07 140.38-1.42 141.39-1.76 142.35-2.29 143.3-2.83 144.1-3.59L144.1-3.59 145.1-2.54Q143.18-0.63 140.91 0.18 138.63 1 135.66 1L135.66 1Q133.31 1 131.27 0.1 129.24-0.81 127.75-2.49 126.26-4.17 125.4-6.56 124.55-8.94 124.55-11.89ZM136.22-23.71L136.22-23.71Q132.43-23.71 130.68-21.74 128.92-19.78 128.55-16.09L128.55-16.09 142.15-16.09Q141.96-20.09 140.36-21.9 138.76-23.71 136.22-23.71ZM175.45-25.39L175.45-25.39Q181.06-25.39 184.26-21.95 187.46-18.51 187.46-12.35L187.46-12.35Q187.46-8.79 185.82-5.71 184.19-2.64 181.38-0.82 178.57 1 175.3 1L175.3 1Q169.66 1 166.47-2.4 163.29-5.81 163.29-12.06L163.29-12.06Q163.29-15.77 164.92-18.84 166.56-21.9 169.36-23.65 172.15-25.39 175.45-25.39ZM174.96-23.71L174.96-23.71Q173.03-23.71 171.61-23.14 170.2-22.58 169.34-21.63 168.49-20.68 167.98-19.21 167.46-17.75 167.28-16.21 167.1-14.67 167.1-12.65L167.1-12.65Q167.1-9.42 167.87-7.02 168.63-4.61 169.93-3.28 171.22-1.95 172.69-1.33 174.15-0.71 175.79-0.71L175.79-0.71Q177.69-0.71 179.12-1.31 180.55-1.9 181.4-2.87 182.26-3.83 182.77-5.31 183.28-6.79 183.47-8.3 183.65-9.81 183.65-11.74L183.65-11.74Q183.65-14.45 183.14-16.58 182.62-18.7 181.78-20.02 180.94-21.34 179.78-22.19 178.62-23.05 177.45-23.38 176.28-23.71 174.96-23.71ZM201.59-35.55L201.59-35.55Q200.3-34.69 199.74-31.93 199.17-29.17 199.05-24.44L199.05-24.44 207.16-24.44 207.16-23.61Q206.72-23.41 206.11-23.23 205.5-23.05 204.81-22.91 204.13-22.78 203.43-22.69 202.74-22.61 202.15-22.61L202.15-22.61 199.05-22.61 199.05-4.39Q199.05-3.42 199.26-2.71 199.47-2 199.96-1.51 200.44-1.03 201.23-0.71 202.01-0.39 203.15-0.2L203.15-0.2 202.93 0.39Q201.54 0.2 200.42 0.1 199.3 0 198.44 0L198.44 0Q197.05 0 195.19 0.39L195.19 0.39 195.05 0.15Q195.54-0.56 195.54-2.44L195.54-2.44 195.54-22.46 191.39-22.19 191.39-23.56Q193.88-24.34 195.54-24.34L195.54-24.34 195.54-25.15Q195.54-27.27 195.73-29.06 195.93-30.86 196.49-32.34 197.05-33.81 198.04-34.95 199.03-36.08 200.64-36.89L200.64-36.89Q201.91-37.52 203.26-37.79 204.62-38.06 206.25-38.06L206.25-38.06Q206.89-38.06 207.56-38.02 208.23-37.99 208.99-37.94L208.99-37.94Q209.01-37.67 209.01-37.41 209.01-37.16 209.01-36.66 209.01-36.16 208.95-35.4 208.89-34.64 208.79-33.94 208.7-33.23 208.56-32.59 208.43-31.96 208.26-31.49L208.26-31.49 207.45-31.64Q207.45-32.1 207.37-32.8 207.28-33.5 207.16-34.18 207.04-34.86 206.89-35.41 206.74-35.96 206.6-36.16L206.6-36.16Q205.52-36.43 204.64-36.43L204.64-36.43Q202.93-36.43 201.59-35.55ZM233.18-35.55L233.18-35.55Q231.88-34.69 231.32-31.93 230.76-29.17 230.64-24.44L230.64-24.44 238.74-24.44 238.74-23.61Q238.31-23.41 237.69-23.23 237.08-23.05 236.4-22.91 235.72-22.78 235.02-22.69 234.33-22.61 233.74-22.61L233.74-22.61 230.64-22.61 230.64-4.39Q230.64-3.42 230.85-2.71 231.05-2 231.54-1.51 232.03-1.03 232.81-0.71 233.59-0.39 234.74-0.2L234.74-0.2 234.52 0.39Q233.13 0.2 232.01 0.1 230.88 0 230.03 0L230.03 0Q228.64 0 226.78 0.39L226.78 0.39 226.64 0.15Q227.12-0.56 227.12-2.44L227.12-2.44 227.12-22.46 222.97-22.19 222.97-23.56Q225.46-24.34 227.12-24.34L227.12-24.34 227.12-25.15Q227.12-27.27 227.32-29.06 227.51-30.86 228.08-32.34 228.64-33.81 229.63-34.95 230.61-36.08 232.23-36.89L232.23-36.89Q233.5-37.52 234.85-37.79 236.21-38.06 237.84-38.06L237.84-38.06Q238.48-38.06 239.15-38.02 239.82-37.99 240.58-37.94L240.58-37.94Q240.6-37.67 240.6-37.41 240.6-37.16 240.6-36.66 240.6-36.16 240.54-35.4 240.48-34.64 240.38-33.94 240.28-33.23 240.15-32.59 240.01-31.96 239.84-31.49L239.84-31.49 239.04-31.64Q239.04-32.1 238.95-32.8 238.87-33.5 238.74-34.18 238.62-34.86 238.48-35.41 238.33-35.96 238.18-36.16L238.18-36.16Q237.11-36.43 236.23-36.43L236.23-36.43Q234.52-36.43 233.18-35.55ZM245.77-2.44L245.77-18.09Q245.77-19.73 245.61-20.83 245.46-21.92 245.05-22.58 244.65-23.24 243.94-23.51 243.23-23.78 241.48-23.75L241.48-23.75 241.38-24.19Q245.36-25.39 248.78-25.39L248.78-25.39Q249.29-24.1 249.29-22.61L249.29-22.61 249.29-19.6 249.39-19.51Q250.41-20.92 251.35-22.02 252.29-23.12 253.27-23.85 254.24-24.58 255.32-24.96 256.39-25.34 257.71-25.34L257.71-25.34Q258.54-25.34 259.54-25.2L259.54-25.2 258.13-19.24 257.22-19.51Q257.22-19.87 257.17-20.51 257.13-21.14 257.04-21.77 256.95-22.39 256.82-22.84 256.69-23.29 256.52-23.29L256.52-23.29Q255.81-23.29 255.09-22.99 254.37-22.68 253.51-22 252.66-21.31 251.63-20.21 250.61-19.12 249.29-17.55L249.29-17.55 249.29-3.34Q249.29-2.56 249.41-2.09 249.53-1.61 249.92-1.29 250.31-0.98 251.02-0.73 251.73-0.49 252.88-0.2L252.88-0.2 252.68 0.39Q251.27 0.2 250.28 0.1 249.29 0 248.68 0L248.68 0Q247.29 0 245.43 0.39L245.43 0.39 245.29 0.15Q245.77-0.56 245.77-2.44L245.77-2.44ZM263.03-11.89L263.03-11.89Q263.03-14.48 263.89-16.91 264.74-19.34 266.33-21.23 267.91-23.12 270.17-24.26 272.43-25.39 275.24-25.39L275.24-25.39Q277-25.39 278.56-24.79 280.12-24.19 281.28-22.94 282.44-21.68 283.11-19.71 283.78-17.75 283.78-15.04L283.78-15.04 282.83-14.16 266.89-14.16Q266.84-13.75 266.84-13.35 266.84-12.96 266.84-12.57L266.84-12.57Q266.84-9.91 267.46-7.74 268.09-5.57 269.15-4.02 270.21-2.47 271.65-1.61 273.09-0.76 274.7-0.76L274.7-0.76Q275.73-0.76 276.79-0.92 277.85-1.07 278.86-1.42 279.88-1.76 280.83-2.29 281.78-2.83 282.59-3.59L282.59-3.59 283.59-2.54Q281.66-0.63 279.39 0.18 277.12 1 274.14 1L274.14 1Q271.8 1 269.76 0.1 267.72-0.81 266.23-2.49 264.74-4.17 263.89-6.56 263.03-8.94 263.03-11.89ZM274.7-23.71L274.7-23.71Q270.92-23.71 269.16-21.74 267.4-19.78 267.04-16.09L267.04-16.09 280.63-16.09Q280.44-20.09 278.84-21.9 277.24-23.71 274.7-23.71ZM288.79-11.89L288.79-11.89Q288.79-14.48 289.64-16.91 290.49-19.34 292.08-21.23 293.67-23.12 295.93-24.26 298.19-25.39 300.99-25.39L300.99-25.39Q302.75-25.39 304.31-24.79 305.88-24.19 307.04-22.94 308.2-21.68 308.87-19.71 309.54-17.75 309.54-15.04L309.54-15.04 308.59-14.16 292.64-14.16Q292.59-13.75 292.59-13.35 292.59-12.96 292.59-12.57L292.59-12.57Q292.59-9.91 293.22-7.74 293.84-5.57 294.9-4.02 295.96-2.47 297.4-1.61 298.84-0.76 300.46-0.76L300.46-0.76Q301.48-0.76 302.54-0.92 303.61-1.07 304.62-1.42 305.63-1.76 306.58-2.29 307.54-2.83 308.34-3.59L308.34-3.59 309.34-2.54Q307.41-0.63 305.14 0.18 302.87 1 299.89 1L299.89 1Q297.55 1 295.51 0.1 293.47-0.81 291.98-2.49 290.49-4.17 289.64-6.56 288.79-8.94 288.79-11.89ZM300.46-23.71L300.46-23.71Q296.67-23.71 294.91-21.74 293.16-19.78 292.79-16.09L292.79-16.09 306.39-16.09Q306.19-20.09 304.59-21.9 302.99-23.71 300.46-23.71ZM321.21-36.21L321.21-4.39Q321.21-2.47 322.11-1.54 323.01-0.61 325.31-0.2L325.31-0.2 325.11 0.39Q322.3 0 320.78 0 319.25 0 317.35 0.39L317.35 0.39 317.2 0.15Q317.69-0.56 317.69-2.44L317.69-2.44 317.69-31.69Q317.69-35.16 316.87-36.34 316.05-37.52 313.39-37.35L313.39-37.35 313.3-37.79Q317.32-38.99 320.69-38.99L320.69-38.99Q321.21-37.72 321.21-36.21L321.21-36.21ZM348.03-17.65L348.03-2.76Q348.03-2.34 348.22-1.99 348.4-1.64 348.66-1.4 348.91-1.17 349.4-0.95 349.89-0.73 350.26-0.61 350.62-0.49 351.28-0.29L351.28-0.29 351.09 0.29Q349.52 0 347.98 0L347.98 0Q346.06 0 344.18 0.39L344.18 0.39 344.03 0.15Q344.54-0.56 344.54-2.44L344.54-2.44 344.54-4.05Q343.32-1.78 340.75-0.39 338.17 1 335.53 1L335.53 1Q332.73 1 331-0.45 329.28-1.9 329.28-4.76L329.28-4.76Q329.28-6.62 330.05-8.07 330.82-9.52 332.1-10.53 333.39-11.55 335.4-12.33 337.41-13.11 339.55-13.6 341.69-14.09 344.54-14.5L344.54-14.5 344.54-16.75Q344.54-23.46 339.24-23.46L339.24-23.46Q337.54-23.46 335.06-22.62 332.58-21.78 330.9-20.41L330.9-20.41 329.89-21.56Q332.02-23.24 334.94-24.34 337.85-25.44 340.39-25.44L340.39-25.44Q341.52-25.44 342.53-25.23 343.54-25.02 344.58-24.48 345.62-23.93 346.36-23.08 347.11-22.24 347.57-20.84 348.03-19.43 348.03-17.65L348.03-17.65ZM336.68-0.85L336.68-0.85Q338.81-0.85 341.12-2.26 343.44-3.66 344.54-5.76L344.54-5.76 344.54-13.21Q338.29-12.3 335.62-10.44 332.95-8.57 332.95-5L332.95-5Q332.95-2.83 333.87-1.84 334.8-0.85 336.68-0.85ZM359.16-2.44L359.16-18.09Q359.16-19.73 359.01-20.83 358.85-21.92 358.44-22.58 358.04-23.24 357.33-23.51 356.63-23.78 355.83-23.78 355.04-23.78 354.87-23.75L354.87-23.75 354.77-24.19Q358.75-25.39 362.17-25.39L362.17-25.39Q362.68-24.1 362.68-22.61L362.68-22.61 362.68-21.9Q364.1-22.85 365.29-23.56 366.49-24.27 367.65-24.76 368.81-25.24 370.03-25.49 371.25-25.73 372.71-25.73L372.71-25.73Q374.03-25.73 375.34-25.39 376.64-25.05 377.68-24.17 378.72-23.29 379.37-21.78 380.01-20.26 380.01-17.94L380.01-17.94 380.01-2.76Q380.01-2.17 380.29-1.78 380.58-1.39 381.03-1.12 381.48-0.85 382.06-0.67 382.65-0.49 383.29-0.29L383.29-0.29 383.07 0.29Q381.7 0 379.43 0L379.43 0Q378.04 0 376.18 0.39L376.18 0.39 376.03 0.15Q376.52-0.56 376.52-2.44L376.52-2.44 376.52-17.04Q376.52-19.09 376.13-20.4 375.74-21.7 375.07-22.45 374.4-23.19 373.51-23.49 372.62-23.78 371.62-23.78L371.62-23.78Q370.39-23.78 369.33-23.56 368.27-23.34 367.21-22.89 366.15-22.44 365.05-21.77 363.95-21.09 362.68-20.19L362.68-20.19 362.68-3.34Q362.68-2.56 362.8-2.09 362.92-1.61 363.31-1.29 363.71-0.98 364.41-0.73 365.12-0.49 366.27-0.2L366.27-0.2 366.07 0.39Q364.66 0.2 363.67 0.1 362.68 0 362.07 0L362.07 0Q360.68 0 358.82 0.39L358.82 0.39 358.68 0.15Q359.16-0.56 359.16-2.44L359.16-2.44ZM399.57 1L399.57 1Q397 1 394.81-0.02 392.61-1.05 391.14-2.77 389.68-4.49 388.85-6.7 388.02-8.91 388.02-11.3L388.02-11.3Q388.02-14.72 389.02-17.43 390.02-20.14 391.8-21.86 393.59-23.58 395.97-24.49 398.35-25.39 401.18-25.39L401.18-25.39Q404.3-25.39 407.62-24.24L407.62-24.24 406.04-18.26 405.13-18.51Q405.4-21.07 404.99-22.9L404.99-22.9Q402.25-23.71 400.03-23.71L400.03-23.71Q395.73-23.71 393.78-20.91 391.83-18.12 391.83-12.65L391.83-12.65Q391.83-7.54 394.21-4.15 396.59-0.76 400.23-0.76L400.23-0.76Q404.74-0.76 407.57-3.59L407.57-3.59 408.58-2.54Q406.74-0.63 404.58 0.18 402.42 1 399.57 1ZM412.16-11.89L412.16-11.89Q412.16-14.48 413.02-16.91 413.87-19.34 415.46-21.23 417.04-23.12 419.3-24.26 421.56-25.39 424.37-25.39L424.37-25.39Q426.13-25.39 427.69-24.79 429.25-24.19 430.41-22.94 431.57-21.68 432.24-19.71 432.91-17.75 432.91-15.04L432.91-15.04 431.96-14.16 416.02-14.16Q415.97-13.75 415.97-13.35 415.97-12.96 415.97-12.57L415.97-12.57Q415.97-9.91 416.59-7.74 417.22-5.57 418.28-4.02 419.34-2.47 420.78-1.61 422.22-0.76 423.83-0.76L423.83-0.76Q424.86-0.76 425.92-0.92 426.98-1.07 427.99-1.42 429.01-1.76 429.96-2.29 430.91-2.83 431.72-3.59L431.72-3.59 432.72-2.54Q430.79-0.63 428.52 0.18 426.25 1 423.27 1L423.27 1Q420.93 1 418.89 0.1 416.85-0.81 415.36-2.49 413.87-4.17 413.02-6.56 412.16-8.94 412.16-11.89ZM423.83-23.71L423.83-23.71Q420.05-23.71 418.29-21.74 416.53-19.78 416.17-16.09L416.17-16.09 429.76-16.09Q429.57-20.09 427.97-21.9 426.37-23.71 423.83-23.71ZM441.07-2.44L441.07-18.09Q441.07-19.73 440.91-20.83 440.75-21.92 440.35-22.58 439.94-23.24 439.23-23.51 438.53-23.78 436.77-23.75L436.77-23.75 436.67-24.19Q440.65-25.39 444.07-25.39L444.07-25.39Q444.58-24.1 444.58-22.61L444.58-22.61 444.58-19.6 444.68-19.51Q445.7-20.92 446.64-22.02 447.58-23.12 448.56-23.85 449.54-24.58 450.61-24.96 451.69-25.34 453-25.34L453-25.34Q453.83-25.34 454.84-25.2L454.84-25.2 453.42-19.24 452.52-19.51Q452.52-19.87 452.47-20.51 452.42-21.14 452.33-21.77 452.25-22.39 452.11-22.84 451.98-23.29 451.81-23.29L451.81-23.29Q451.1-23.29 450.38-22.99 449.66-22.68 448.81-22 447.95-21.31 446.93-20.21 445.9-19.12 444.58-17.55L444.58-17.55 444.58-3.34Q444.58-2.56 444.7-2.09 444.83-1.61 445.22-1.29 445.61-0.98 446.31-0.73 447.02-0.49 448.17-0.2L448.17-0.2 447.97 0.39Q446.56 0.2 445.57 0.1 444.58 0 443.97 0L443.97 0Q442.58 0 440.72 0.39L440.72 0.39 440.58 0.15Q441.07-0.56 441.07-2.44L441.07-2.44ZM475.15-5.69L475.15-5.69Q475.15-3.93 474.44-2.66 473.73-1.39 472.55-0.57 471.36 0.24 469.79 0.62 468.21 1 466.48 1L466.48 1Q462.28 1 458.59-0.76L458.59-0.76Q459.06-2.37 459.52-3.75 459.98-5.13 460.47-6.3L460.47-6.3 461.18-6.05Q460.96-4.98 460.96-3.99 460.96-3 461.03-2.2L461.03-2.2Q461.79-1.81 462.45-1.53 463.11-1.25 463.77-1.06 464.43-0.88 465.18-0.79 465.94-0.71 466.94-0.71L466.94-0.71Q468.43-0.71 469.41-0.9 470.38-1.1 470.93-1.57 471.48-2.05 471.7-2.84 471.92-3.64 471.92-4.81L471.92-4.81Q471.92-5.71 471.62-6.51 471.31-7.3 470.57-8.08 469.82-8.86 468.59-9.7 467.36-10.55 465.53-11.55L465.53-11.55Q462.57-13.31 461.06-15.05 459.54-16.8 459.54-18.8L459.54-18.8Q459.54-20.39 460.2-21.62 460.86-22.85 462-23.69 463.13-24.54 464.65-24.96 466.16-25.39 467.85-25.39L467.85-25.39Q468.7-25.39 469.64-25.27 470.58-25.15 471.46-24.91 472.34-24.68 473.11-24.35 473.88-24.02 474.44-23.61L474.44-23.61Q473.66-20.41 472.53-17.99L472.53-17.99 471.83-18.26Q471.87-18.97 471.9-20.01 471.92-21.04 471.92-22.46L471.92-22.46Q470.34-23.71 467.53-23.71L467.53-23.71Q466.14-23.71 465.17-23.54 464.21-23.36 463.62-22.95 463.04-22.53 462.78-21.81 462.52-21.09 462.52-20L462.52-20Q462.52-19.19 462.74-18.49 462.96-17.8 463.52-17.13 464.09-16.46 465.05-15.76 466.01-15.06 467.53-14.26L467.53-14.26Q469.9-12.96 471.37-11.99 472.85-11.01 473.69-10.07 474.53-9.13 474.84-8.11 475.15-7.08 475.15-5.69Z" opacity="1" transform="matrix(1,0,0,1,0,0)" fill="#0080ff" class="undefined-text-1" data-fill-palette-color="secondary" id="text-1"></path></svg></g></svg></g></svg></g></svg></g><g></g></svg></g></svg></g></svg></g></svg></g><defs><mask id="16a8fbdf-3aba-4565-a440-0624abe9f426"><rect width="640" height="400" fill="white"></rect><rect width="174.02880000000002" height="60.127118029205604" fill="black" y="93.53644098539719" x="110.74559999999998" id="transform-me"></rect></mask><mask id="f0367998-94eb-4977-888e-3c9791cfda49"><rect width="640" height="400" fill="white"></rect><rect width="174.02880000000002" height="60.127118029205604" fill="black" y="93.53644098539719" x="110.74559999999998" id="transform-me"></rect></mask></defs></svg><rect width="395.52" height="247.2" fill="none" stroke="none" visibility="hidden"></rect></g></svg></g></svg>